<mxfile host="Electron" modified="2024-09-15T03:40:38.944Z" agent="Mozilla/5.0 (Windows NT 10.0; Win64; x64) AppleWebKit/537.36 (KHTML, like Gecko) draw.io/21.6.5 Chrome/114.0.5735.243 Electron/25.3.1 Safari/537.36" etag="WDtOvNFufHqFm0jQxB_m" version="21.6.5" type="device">
  <diagram name="PÃ¡gina-1" id="-r0-UGeDX-5RcM0Z9Una">
    <mxGraphModel dx="780" dy="504" grid="1" gridSize="10" guides="1" tooltips="1" connect="1" arrows="1" fold="1" page="1" pageScale="1" pageWidth="1169" pageHeight="827" math="0" shadow="0">
      <root>
        <mxCell id="0" />
        <mxCell id="1" parent="0" />
        <mxCell id="dYpQHuHDdKPn_CNV8V3a-13" value="Email" style="swimlane;fontStyle=1;align=center;verticalAlign=top;childLayout=stackLayout;horizontal=1;startSize=26;horizontalStack=0;resizeParent=1;resizeParentMax=0;resizeLast=0;collapsible=1;marginBottom=0;whiteSpace=wrap;html=1;fillColor=#dae8fc;strokeColor=#6c8ebf;" vertex="1" parent="1">
          <mxGeometry x="180" y="150" width="160" height="180" as="geometry" />
        </mxCell>
        <mxCell id="dYpQHuHDdKPn_CNV8V3a-14" value="&lt;div&gt;- asunto: String&lt;/div&gt;&lt;div&gt;- body: String&lt;/div&gt;&lt;div&gt;- recipients: List&amp;lt;String&amp;gt;&lt;/div&gt;&lt;div&gt;- attachments: List&amp;lt;String&amp;gt;&lt;/div&gt;&lt;div&gt;&lt;br&gt;&lt;/div&gt;" style="text;strokeColor=#666666;fillColor=#f5f5f5;align=left;verticalAlign=top;spacingLeft=4;spacingRight=4;overflow=hidden;rotatable=0;points=[[0,0.5],[1,0.5]];portConstraint=eastwest;whiteSpace=wrap;html=1;fontColor=#333333;" vertex="1" parent="dYpQHuHDdKPn_CNV8V3a-13">
          <mxGeometry y="26" width="160" height="74" as="geometry" />
        </mxCell>
        <mxCell id="dYpQHuHDdKPn_CNV8V3a-15" value="" style="line;strokeWidth=1;fillColor=none;align=left;verticalAlign=middle;spacingTop=-1;spacingLeft=3;spacingRight=3;rotatable=0;labelPosition=right;points=[];portConstraint=eastwest;strokeColor=inherit;" vertex="1" parent="dYpQHuHDdKPn_CNV8V3a-13">
          <mxGeometry y="100" width="160" height="8" as="geometry" />
        </mxCell>
        <mxCell id="dYpQHuHDdKPn_CNV8V3a-16" value="&lt;div&gt;+ asunto: String&lt;/div&gt;&lt;div&gt;+ body: String&lt;/div&gt;&lt;div&gt;+ recipients: List&amp;lt;String&amp;gt;&lt;/div&gt;&lt;div&gt;+ attachments: List&amp;lt;String&amp;gt;&lt;/div&gt;&lt;div&gt;&lt;br&gt;&lt;/div&gt;" style="text;strokeColor=#666666;fillColor=#f5f5f5;align=left;verticalAlign=top;spacingLeft=4;spacingRight=4;overflow=hidden;rotatable=0;points=[[0,0.5],[1,0.5]];portConstraint=eastwest;whiteSpace=wrap;html=1;fontColor=#333333;" vertex="1" parent="dYpQHuHDdKPn_CNV8V3a-13">
          <mxGeometry y="108" width="160" height="72" as="geometry" />
        </mxCell>
        <mxCell id="dYpQHuHDdKPn_CNV8V3a-22" style="edgeStyle=orthogonalEdgeStyle;rounded=0;orthogonalLoop=1;jettySize=auto;html=1;" edge="1" parent="1" source="dYpQHuHDdKPn_CNV8V3a-17" target="dYpQHuHDdKPn_CNV8V3a-13">
          <mxGeometry relative="1" as="geometry">
            <Array as="points">
              <mxPoint x="440" y="250" />
              <mxPoint x="440" y="250" />
            </Array>
          </mxGeometry>
        </mxCell>
        <mxCell id="dYpQHuHDdKPn_CNV8V3a-17" value="Email Builder" style="swimlane;fontStyle=1;align=center;verticalAlign=top;childLayout=stackLayout;horizontal=1;startSize=26;horizontalStack=0;resizeParent=1;resizeParentMax=0;resizeLast=0;collapsible=1;marginBottom=0;whiteSpace=wrap;html=1;fillColor=#d5e8d4;strokeColor=#82b366;" vertex="1" parent="1">
          <mxGeometry x="490" y="120" width="160" height="260" as="geometry" />
        </mxCell>
        <mxCell id="dYpQHuHDdKPn_CNV8V3a-18" value="&lt;div&gt;+ asunto: String&lt;/div&gt;&lt;div&gt;+ body: String&lt;/div&gt;&lt;div&gt;+ recipients: List&amp;lt;String&amp;gt;&lt;/div&gt;&lt;div&gt;+ attachments: List&amp;lt;String&amp;gt;&lt;/div&gt;&lt;div&gt;&lt;br&gt;&lt;/div&gt;" style="text;strokeColor=#666666;fillColor=#f5f5f5;align=left;verticalAlign=top;spacingLeft=4;spacingRight=4;overflow=hidden;rotatable=0;points=[[0,0.5],[1,0.5]];portConstraint=eastwest;whiteSpace=wrap;html=1;fontColor=#333333;" vertex="1" parent="dYpQHuHDdKPn_CNV8V3a-17">
          <mxGeometry y="26" width="160" height="64" as="geometry" />
        </mxCell>
        <mxCell id="dYpQHuHDdKPn_CNV8V3a-19" value="" style="line;strokeWidth=1;fillColor=none;align=left;verticalAlign=middle;spacingTop=-1;spacingLeft=3;spacingRight=3;rotatable=0;labelPosition=right;points=[];portConstraint=eastwest;strokeColor=inherit;" vertex="1" parent="dYpQHuHDdKPn_CNV8V3a-17">
          <mxGeometry y="90" width="160" height="8" as="geometry" />
        </mxCell>
        <mxCell id="dYpQHuHDdKPn_CNV8V3a-20" value="&lt;div&gt;+ setAsunto(asunto: String): EmailBuilder&lt;/div&gt;&lt;div&gt;+ setBody(body: String): EmailBuilder&lt;/div&gt;&lt;div&gt;+ addRecipient(recipient: String): EmailBuilder&lt;/div&gt;&lt;div&gt;+ addAttachment(attachment: String): EmailBuilder&lt;/div&gt;&lt;div&gt;+ build(): Email&lt;/div&gt;&lt;div&gt;&lt;br&gt;&lt;/div&gt;" style="text;strokeColor=#666666;fillColor=#f5f5f5;align=left;verticalAlign=top;spacingLeft=4;spacingRight=4;overflow=hidden;rotatable=0;points=[[0,0.5],[1,0.5]];portConstraint=eastwest;whiteSpace=wrap;html=1;fontColor=#333333;" vertex="1" parent="dYpQHuHDdKPn_CNV8V3a-17">
          <mxGeometry y="98" width="160" height="162" as="geometry" />
        </mxCell>
      </root>
    </mxGraphModel>
  </diagram>
</mxfile>
